<?xml version="1.0" standalone="no"?>
<!DOCTYPE svg PUBLIC "-//W3C//DTD SVG 20010904//EN"
 "http://www.w3.org/TR/2001/REC-SVG-20010904/DTD/svg10.dtd">
<svg version="1.0" xmlns="http://www.w3.org/2000/svg"
 width="887.000000pt" height="887.000000pt" viewBox="0 0 887.000000 887.000000"
 preserveAspectRatio="xMidYMid meet">
<metadata>
Created by potrace 1.11, written by Peter Selinger 2001-2013
</metadata>
<g transform="translate(0.000000,887.000000) scale(0.100000,-0.100000)"
fill="#000000" stroke="none">
<path d="M5550 6358 c0 -6 -3 -8 -7 -5 -3 4 -28 -9 -55 -28 -26 -19 -53 -35
-58 -35 -6 0 -9 -4 -7 -8 1 -5 -13 -21 -30 -36 -27 -22 -30 -30 -20 -41 21
-23 52 -67 59 -87 6 -13 1 -26 -16 -43 -29 -29 -39 -55 -23 -60 6 -2 31 -9 55
-15 31 -8 42 -16 42 -30 0 -11 -5 -20 -12 -20 -6 0 -9 -3 -5 -6 3 -4 0 -13 -8
-21 -9 -9 -13 -25 -10 -43 l5 -29 -57 -1 c-32 -1 -66 -1 -76 -1 -9 0 -15 -5
-11 -10 3 -6 0 -9 -7 -8 -18 3 -69 -22 -69 -33 0 -5 -5 -6 -10 -3 -6 3 -13 -1
-16 -9 -3 -8 -16 -18 -27 -22 -12 -3 -30 -13 -39 -22 -10 -8 -18 -12 -18 -8 0
4 -12 -2 -26 -13 -34 -26 -64 -27 -92 -1 -12 11 -25 20 -29 20 -5 0 -15 9 -23
20 -14 20 -50 28 -50 11 0 -5 -26 -8 -57 -7 -34 0 -62 -4 -68 -11 -5 -7 -17
-13 -25 -15 -8 -2 -22 -12 -31 -22 -13 -16 -14 -26 -6 -53 7 -23 7 -40 -1 -58
-9 -20 -9 -25 2 -25 7 0 18 -11 24 -25 21 -46 14 -78 -25 -122 -21 -22 -42
-48 -48 -57 -5 -9 -20 -17 -33 -19 -13 -2 -31 -11 -42 -19 -10 -9 -21 -14 -24
-11 -3 4 -6 1 -6 -5 0 -6 -8 -13 -18 -17 -24 -7 -42 -46 -42 -92 0 -46 -37
-113 -58 -105 -10 3 -13 1 -8 -6 3 -6 -2 -13 -13 -17 -25 -8 -81 -3 -81 8 0 5
-7 1 -16 -7 -8 -9 -21 -16 -27 -16 -11 0 -37 -33 -37 -45 1 -13 -32 -65 -41
-65 -20 0 -41 -75 -41 -147 0 -40 -4 -75 -9 -79 -5 -3 -7 -9 -5 -13 7 -11 -33
-53 -44 -46 -4 3 -10 -2 -14 -10 -9 -23 -62 -18 -88 8 -34 34 -98 56 -98 35 0
-5 -12 -7 -27 -4 -48 9 -73 18 -73 27 0 5 -5 9 -11 9 -15 0 -39 26 -32 34 4 3
1 6 -5 6 -14 0 -17 71 -4 85 5 6 -2 20 -14 33 -21 22 -22 23 -17 3 4 -17 0
-21 -21 -22 -14 -1 -32 -2 -38 -3 -7 -1 -16 -7 -19 -15 -7 -19 -45 -24 -72
-10 -22 12 -22 12 -3 -10 24 -26 14 -38 -19 -23 -29 13 -34 0 -10 -25 21 -21
14 -37 -18 -41 -15 -2 -27 -10 -27 -18 0 -8 -3 -13 -7 -13 -34 5 -41 -3 -45
-50 -1 -27 0 -47 4 -45 9 6 21 -34 13 -46 -3 -5 -15 -10 -25 -10 -10 0 -25 -6
-32 -13 -7 -7 -21 -16 -30 -20 -16 -5 -24 -39 -19 -70 1 -5 -11 -7 -26 -5 -30
3 -35 16 -20 61 7 19 6 32 -2 38 -6 5 -9 6 -6 3 7 -10 -24 -36 -35 -29 -5 3
-10 1 -10 -5 0 -6 -12 -10 -27 -8 -16 2 -27 6 -25 11 1 4 -7 16 -18 27 -11 11
-20 26 -20 34 0 8 -5 16 -11 18 -5 2 -11 12 -13 23 -3 21 -36 35 -36 15 0 -6
-4 -8 -10 -5 -5 3 -10 2 -10 -4 0 -5 -8 -12 -18 -15 -10 -4 -28 -15 -40 -27
-12 -11 -36 -21 -52 -22 -16 -1 -30 -6 -30 -10 0 -5 -4 -5 -10 -2 -5 3 -10 1
-10 -4 0 -6 -5 -11 -11 -11 -6 0 -24 -9 -39 -20 -22 -16 -31 -34 -40 -78 -18
-85 -40 -102 -80 -62 -11 11 -17 20 -13 20 4 0 -2 7 -13 15 -10 8 -14 15 -9
16 6 0 -14 6 -43 12 -29 7 -54 17 -55 22 -2 14 -79 65 -99 65 -9 0 -24 7 -32
16 -9 8 -16 12 -16 7 0 -4 -4 -2 -9 5 -9 16 -71 27 -71 14 0 -9 -23 -19 -64
-28 -10 -2 -26 5 -37 17 -11 12 -19 19 -19 14 0 -4 -13 7 -30 25 -27 29 -30
30 -30 11 0 -23 -25 -29 -33 -8 -5 11 -11 -17 -8 -35 0 -5 -3 -8 -8 -8 -13 0
0 -44 16 -53 18 -11 16 -62 -3 -81 -14 -14 -57 -14 -73 1 -10 8 -2 78 8 81 6
2 9 7 6 12 -3 4 -26 1 -52 -7 -27 -8 -64 -16 -83 -18 -38 -3 -74 11 -65 26 4
5 -1 9 -9 9 -8 0 -22 10 -30 22 -14 20 -17 20 -28 7 -7 -9 -25 -23 -41 -32
-30 -19 -35 -48 -12 -67 8 -7 12 -16 9 -21 -3 -5 -1 -9 3 -9 5 0 10 -11 11
-25 3 -37 -41 -52 -86 -31 -18 9 -31 12 -28 7 3 -5 -8 -14 -24 -21 -16 -7 -29
-15 -28 -19 1 -3 -2 -19 -7 -36 -9 -32 -34 -58 -77 -81 -33 -17 -61 -78 -53
-114 3 -14 16 -38 28 -52 91 -108 99 -141 40 -154 -21 -5 -45 -9 -53 -9 -8 0
-20 -4 -26 -8 -7 -4 -28 -8 -48 -9 -20 -2 -36 -7 -36 -12 0 -4 -7 -6 -15 -3
-8 4 -17 2 -20 -4 -4 -5 -10 -7 -15 -4 -5 3 -15 -1 -23 -9 -8 -8 -17 -12 -21
-9 -3 4 -6 1 -6 -6 0 -10 -12 -12 -45 -8 -25 3 -50 9 -55 12 -6 3 -10 1 -10
-5 0 -6 -11 -15 -25 -20 -14 -5 -29 -20 -34 -32 -20 -50 -24 -64 -22 -75 1 -7
-3 -13 -9 -13 -5 0 -9 -3 -8 -7 1 -5 -4 -21 -10 -36 -17 -40 -15 -47 16 -76
43 -43 83 -109 79 -134 -5 -27 -32 -86 -50 -110 -14 -17 -67 -21 -67 -5 0 4
-6 8 -13 8 -7 0 -20 8 -29 18 -30 31 -47 42 -68 42 -11 0 -20 4 -20 9 0 5 -9
7 -20 4 -11 -3 -20 -1 -20 4 0 5 -8 9 -17 10 -40 2 -69 14 -85 34 -10 12 -18
18 -18 14 0 -5 -8 -1 -17 7 -67 59 -255 102 -270 62 -3 -8 -11 -14 -18 -14
-17 0 -85 -68 -85 -86 0 -8 -4 -14 -10 -14 -5 0 -10 -7 -10 -15 0 -9 -7 -18
-15 -21 -8 -4 -13 -10 -10 -14 3 -5 0 -12 -8 -17 -13 -9 -40 -48 -49 -74 -6
-15 39 -76 59 -82 13 -4 11 -108 -3 -136 -7 -14 -27 -41 -43 -60 -24 -28 -27
-37 -18 -52 6 -10 13 -16 16 -14 7 8 41 -27 41 -42 0 -7 -7 -13 -15 -13 -8 0
-15 -4 -15 -10 0 -5 -3 -9 -7 -9 -25 4 -43 -3 -43 -16 0 -8 -5 -15 -11 -15 -8
0 -8 -4 1 -14 16 -20 23 -75 12 -89 -10 -12 -28 -86 -24 -99 2 -9 -1 -10 -45
-14 -18 -1 -33 1 -33 4 0 4 -11 19 -24 34 -14 14 -23 29 -20 32 2 3 1 4 -3 1
-3 -3 -12 0 -20 7 -11 9 -13 8 -11 -2 2 -7 -8 -16 -21 -19 -16 -4 -28 -17 -34
-36 -5 -17 -11 -37 -13 -45 -3 -8 -5 -17 -5 -20 0 -3 -8 -13 -16 -23 -31 -33
-47 -32 407 -41 284 -6 284 -6 340 -5 25 0 182 -2 350 -6 263 -5 419 -7 508
-5 12 0 22 5 22 10 0 6 9 19 20 30 22 22 26 83 7 107 -5 7 -6 17 -2 23 3 5 2
10 -3 10 -5 0 -9 6 -10 13 -1 6 -4 24 -8 39 -6 26 -5 26 48 26 29 -1 57 -3 63
-6 5 -3 26 -5 47 -3 40 3 82 -14 73 -30 -4 -5 0 -9 7 -10 59 -3 1637 3 1721 7
76 3 107 1 107 -7 0 -8 4 -8 14 0 9 8 33 10 67 6 30 -3 110 -8 179 -10 69 -2
199 -6 290 -9 200 -7 539 -7 635 0 96 6 442 7 600 0 72 -3 400 -8 731 -12 461
-5 606 -4 623 6 13 6 20 14 17 17 -3 4 4 11 17 18 12 6 21 17 19 24 -1 7 2 10
8 6 5 -3 10 -1 10 4 0 6 4 11 9 11 5 0 31 10 58 22 26 12 62 22 78 24 72 5
120 17 156 40 22 13 39 21 39 17 0 -5 4 -2 9 5 4 7 42 22 84 32 82 21 181 59
172 68 -2 3 2 10 11 16 13 10 20 28 23 59 1 5 5 6 10 3 5 -3 12 1 15 10 3 8 2
12 -4 9 -18 -11 -11 4 12 25 13 12 35 20 55 20 44 0 147 52 186 95 27 30 45
85 28 85 -4 0 -7 10 -9 23 -1 22 32 45 74 51 8 1 30 16 49 33 18 17 35 29 38
27 2 -2 4 2 5 9 0 6 3 21 5 32 2 11 0 23 -6 26 -6 4 -7 15 -2 25 5 11 7 22 7
27 -1 4 3 7 9 7 6 0 17 6 24 13 35 30 45 37 45 30 0 -4 6 0 14 9 7 10 24 22
37 28 13 6 56 28 94 50 39 21 78 37 88 34 9 -3 17 -1 17 4 0 5 14 15 30 22 17
7 43 25 57 41 15 15 30 26 34 23 5 -3 16 7 25 21 9 13 21 22 27 18 5 -3 7 -2
4 4 -5 8 29 47 43 47 3 1 30 26 62 58 31 31 59 53 63 50 4 -4 5 0 3 8 -2 8 3
14 10 12 8 -1 11 1 9 5 -2 5 7 19 21 33 13 14 21 19 17 11 -4 -8 10 4 33 26
44 43 56 67 32 68 -8 0 -14 7 -12 15 2 10 0 11 -10 3 -12 -10 -48 -10 -103 1
-11 2 -23 4 -28 5 -4 0 -5 12 -1 25 4 19 1 26 -15 31 -12 3 -19 11 -16 16 4 5
-5 9 -19 9 -14 0 -26 5 -26 11 0 5 -4 7 -10 4 -5 -3 -12 6 -16 20 -4 18 -13
25 -30 25 -13 0 -26 0 -29 0 -15 0 -42 38 -40 58 1 12 -2 22 -6 22 -5 0 -9 7
-9 16 0 8 -5 12 -10 9 -7 -4 -9 6 -7 29 2 19 0 33 -4 30 -5 -3 -9 0 -9 6 0 6
-4 9 -9 6 -5 -3 -14 1 -21 9 -7 8 -17 15 -22 15 -14 0 -38 27 -31 34 4 3 1 6
-6 6 -7 0 -9 5 -6 10 3 6 2 10 -4 10 -5 0 -8 8 -6 18 1 9 -6 28 -16 41 -10 13
-19 20 -19 16 0 -3 -13 3 -30 15 -21 15 -29 28 -28 47 2 14 8 27 15 30 15 6
-5 43 -24 43 -16 0 -56 67 -47 81 4 8 3 9 -4 5 -7 -4 -12 -2 -12 4 0 12 -21
37 -31 36 -3 -1 -13 7 -23 17 -10 9 -15 17 -12 17 3 0 -4 11 -16 25 -12 14
-30 25 -39 25 -33 0 -30 19 11 60 29 29 38 45 32 53 -14 18 4 60 23 53 11 -4
14 0 11 17 -3 12 -5 22 -6 22 -1 0 -3 8 -5 18 -2 9 0 17 5 17 13 0 5 31 -11
41 -8 5 -9 9 -4 9 6 0 3 5 -5 10 -10 6 -15 27 -16 67 -1 82 -16 128 -37 111
-5 -5 -64 57 -60 63 1 4 -6 14 -17 24 -11 10 -20 15 -20 10 0 -4 -6 -3 -12 2
-7 6 -21 11 -30 11 -10 1 -30 2 -45 3 -29 2 -92 61 -94 88 -1 30 -9 64 -18 75
-4 6 -7 30 -6 54 2 31 -1 45 -12 49 -8 3 -18 2 -22 -3 -3 -5 -13 -10 -21 -12
-8 -2 -17 -8 -18 -13 -2 -5 -8 -7 -13 -3 -5 3 -9 0 -9 -6 0 -6 -6 -10 -12 -8
-20 3 -58 -12 -58 -23 0 -6 -4 -8 -9 -4 -6 3 -14 -3 -20 -12 -6 -10 -11 -15
-11 -10 0 4 -9 -1 -19 -10 -39 -35 -50 -43 -66 -43 -8 0 -14 -3 -13 -7 1 -5
-3 -18 -10 -30 -10 -18 -20 -22 -50 -20 -20 1 -43 6 -49 10 -12 8 -17 2 -14
-15 0 -5 -8 -8 -18 -8 -11 0 -22 -4 -25 -9 -7 -11 -42 -7 -38 4 2 5 -3 12 -12
17 -9 5 -16 15 -16 22 0 19 -56 40 -107 41 -27 1 -48 7 -56 18 -15 19 -67 41
-67 27 0 -5 -7 -7 -15 -4 -8 4 -15 1 -15 -6 0 -7 -7 -10 -15 -7 -8 4 -17 2
-20 -4 -4 -5 -11 -7 -16 -4 -5 4 -12 -1 -15 -9 -3 -9 -15 -16 -25 -16 -10 0
-18 -3 -18 -7 8 -53 -19 -77 -53 -47 -12 11 -18 14 -15 7 4 -6 -10 -3 -30 7
-21 10 -41 16 -45 13 -5 -2 -8 5 -8 16 0 28 -11 52 -21 45 -5 -3 -9 -1 -9 4 0
6 -10 12 -22 16 -13 3 -29 19 -36 36 -11 23 -19 29 -37 26 -13 -2 -31 3 -42
12 -16 16 -31 18 -58 12 -5 -1 -13 -2 -17 -1 -5 0 -8 -4 -8 -10 0 -5 -4 -8 -8
-5 -5 3 -22 2 -38 -3 -33 -8 -126 6 -135 21 -3 5 -9 9 -13 9 -22 -3 -37 1 -50
15 -9 8 -16 13 -16 9 0 -3 -6 0 -14 7 -8 7 -12 16 -9 21 2 4 0 7 -6 7 -5 0 -8
12 -7 28 4 33 -11 71 -38 95 -12 10 -14 16 -6 12 8 -4 5 2 -7 12 -13 10 -23
32 -25 53 -2 19 -10 41 -18 48 -13 12 -13 13 0 6 13 -7 13 -5 1 9 -7 9 -17 14
-22 11 -5 -3 -9 -1 -9 5 0 6 -7 8 -15 5 -8 -4 -15 -2 -15 4 0 6 -8 9 -17 8
-26 -4 -63 15 -65 33 0 9 -2 21 -2 28 -3 25 -34 38 -48 19 -3 -5 -17 -11 -30
-13 -13 -1 -34 -6 -48 -10 -14 -3 -31 -5 -37 -4 -7 1 -13 -2 -13 -8 0 -13 -53
-6 -58 8 -2 6 -10 11 -18 11 -8 0 -14 5 -14 10 0 6 -5 10 -11 10 -7 0 -19 8
-28 18 -20 23 -51 35 -51 20z"/>
</g>
</svg>
